<mxfile host="app.diagrams.net" modified="2024-03-25T07:52:39.559Z" agent="Mozilla/5.0 (Windows NT 10.0; Win64; x64; rv:124.0) Gecko/20100101 Firefox/124.0" etag="ihzqHT80ZLymEzS4RA3m" version="23.1.0" type="device">
  <diagram name="Page-1" id="D2jS-NvSDsYDTageLER6">
    <mxGraphModel dx="989" dy="539" grid="1" gridSize="10" guides="1" tooltips="1" connect="1" arrows="1" fold="1" page="1" pageScale="1" pageWidth="1700" pageHeight="2200" math="0" shadow="0">
      <root>
        <mxCell id="0" />
        <mxCell id="1" parent="0" />
        <mxCell id="HoHo2z-yK8uKQ-re_OmP-27" style="edgeStyle=orthogonalEdgeStyle;rounded=0;orthogonalLoop=1;jettySize=auto;html=1;exitX=0.5;exitY=1;exitDx=0;exitDy=0;entryX=0.5;entryY=0;entryDx=0;entryDy=0;" edge="1" parent="1" source="HoHo2z-yK8uKQ-re_OmP-4" target="HoHo2z-yK8uKQ-re_OmP-5">
          <mxGeometry relative="1" as="geometry" />
        </mxCell>
        <mxCell id="HoHo2z-yK8uKQ-re_OmP-4" value="Nonce/IV" style="rounded=0;whiteSpace=wrap;html=1;fillColor=#e1d5e7;strokeColor=#9673a6;" vertex="1" parent="1">
          <mxGeometry x="200" y="120" width="120" height="40" as="geometry" />
        </mxCell>
        <mxCell id="HoHo2z-yK8uKQ-re_OmP-13" style="edgeStyle=orthogonalEdgeStyle;rounded=0;orthogonalLoop=1;jettySize=auto;html=1;exitX=0.5;exitY=1;exitDx=0;exitDy=0;entryX=0.5;entryY=0;entryDx=0;entryDy=0;" edge="1" parent="1" source="HoHo2z-yK8uKQ-re_OmP-5">
          <mxGeometry relative="1" as="geometry">
            <mxPoint x="260" y="280" as="targetPoint" />
          </mxGeometry>
        </mxCell>
        <mxCell id="HoHo2z-yK8uKQ-re_OmP-19" style="edgeStyle=orthogonalEdgeStyle;rounded=0;orthogonalLoop=1;jettySize=auto;html=1;exitX=1;exitY=0.5;exitDx=0;exitDy=0;entryX=0;entryY=0.5;entryDx=0;entryDy=0;" edge="1" parent="1" source="HoHo2z-yK8uKQ-re_OmP-5" target="HoHo2z-yK8uKQ-re_OmP-6">
          <mxGeometry relative="1" as="geometry" />
        </mxCell>
        <mxCell id="HoHo2z-yK8uKQ-re_OmP-5" value="Counter 1" style="rounded=0;whiteSpace=wrap;html=1;fillColor=none;" vertex="1" parent="1">
          <mxGeometry x="200" y="200" width="120" height="40" as="geometry" />
        </mxCell>
        <mxCell id="HoHo2z-yK8uKQ-re_OmP-14" style="edgeStyle=orthogonalEdgeStyle;rounded=0;orthogonalLoop=1;jettySize=auto;html=1;exitX=0.5;exitY=1;exitDx=0;exitDy=0;entryX=0.5;entryY=0;entryDx=0;entryDy=0;" edge="1" parent="1" source="HoHo2z-yK8uKQ-re_OmP-6">
          <mxGeometry relative="1" as="geometry">
            <mxPoint x="500" y="280" as="targetPoint" />
          </mxGeometry>
        </mxCell>
        <mxCell id="HoHo2z-yK8uKQ-re_OmP-20" style="edgeStyle=orthogonalEdgeStyle;rounded=0;orthogonalLoop=1;jettySize=auto;html=1;exitX=1;exitY=0.5;exitDx=0;exitDy=0;entryX=0;entryY=0.5;entryDx=0;entryDy=0;" edge="1" parent="1" source="HoHo2z-yK8uKQ-re_OmP-6" target="HoHo2z-yK8uKQ-re_OmP-7">
          <mxGeometry relative="1" as="geometry" />
        </mxCell>
        <mxCell id="HoHo2z-yK8uKQ-re_OmP-6" value="Counter 2" style="rounded=0;whiteSpace=wrap;html=1;fillColor=none;" vertex="1" parent="1">
          <mxGeometry x="440" y="200" width="120" height="40" as="geometry" />
        </mxCell>
        <mxCell id="HoHo2z-yK8uKQ-re_OmP-15" style="edgeStyle=orthogonalEdgeStyle;rounded=0;orthogonalLoop=1;jettySize=auto;html=1;exitX=0.5;exitY=1;exitDx=0;exitDy=0;entryX=0.5;entryY=0;entryDx=0;entryDy=0;" edge="1" parent="1" source="HoHo2z-yK8uKQ-re_OmP-7">
          <mxGeometry relative="1" as="geometry">
            <mxPoint x="740" y="280" as="targetPoint" />
          </mxGeometry>
        </mxCell>
        <mxCell id="HoHo2z-yK8uKQ-re_OmP-7" value="Counter 3" style="rounded=0;whiteSpace=wrap;html=1;fillColor=none;" vertex="1" parent="1">
          <mxGeometry x="680" y="200" width="120" height="40" as="geometry" />
        </mxCell>
        <mxCell id="HoHo2z-yK8uKQ-re_OmP-24" value="+1" style="text;html=1;align=center;verticalAlign=middle;resizable=0;points=[];autosize=1;strokeColor=none;fillColor=none;" vertex="1" parent="1">
          <mxGeometry x="360" y="190" width="40" height="30" as="geometry" />
        </mxCell>
        <mxCell id="HoHo2z-yK8uKQ-re_OmP-37" style="edgeStyle=orthogonalEdgeStyle;rounded=0;orthogonalLoop=1;jettySize=auto;html=1;exitX=0.5;exitY=1;exitDx=0;exitDy=0;entryX=0.5;entryY=0;entryDx=0;entryDy=0;" edge="1" parent="1" source="HoHo2z-yK8uKQ-re_OmP-29" target="HoHo2z-yK8uKQ-re_OmP-34">
          <mxGeometry relative="1" as="geometry" />
        </mxCell>
        <mxCell id="HoHo2z-yK8uKQ-re_OmP-29" value="Encrypt with key K" style="rounded=1;whiteSpace=wrap;html=1;fillColor=#dae8fc;strokeColor=#6c8ebf;" vertex="1" parent="1">
          <mxGeometry x="200" y="280" width="120" height="60" as="geometry" />
        </mxCell>
        <mxCell id="HoHo2z-yK8uKQ-re_OmP-38" style="edgeStyle=orthogonalEdgeStyle;rounded=0;orthogonalLoop=1;jettySize=auto;html=1;exitX=0.5;exitY=1;exitDx=0;exitDy=0;entryX=0.5;entryY=0;entryDx=0;entryDy=0;" edge="1" parent="1" source="HoHo2z-yK8uKQ-re_OmP-31" target="HoHo2z-yK8uKQ-re_OmP-35">
          <mxGeometry relative="1" as="geometry" />
        </mxCell>
        <mxCell id="HoHo2z-yK8uKQ-re_OmP-31" value="Encrypt with key K" style="rounded=1;whiteSpace=wrap;html=1;fillColor=#dae8fc;strokeColor=#6c8ebf;" vertex="1" parent="1">
          <mxGeometry x="440" y="280" width="120" height="60" as="geometry" />
        </mxCell>
        <mxCell id="HoHo2z-yK8uKQ-re_OmP-39" style="edgeStyle=orthogonalEdgeStyle;rounded=0;orthogonalLoop=1;jettySize=auto;html=1;exitX=0.5;exitY=1;exitDx=0;exitDy=0;entryX=0.5;entryY=0;entryDx=0;entryDy=0;" edge="1" parent="1" source="HoHo2z-yK8uKQ-re_OmP-32" target="HoHo2z-yK8uKQ-re_OmP-36">
          <mxGeometry relative="1" as="geometry" />
        </mxCell>
        <mxCell id="HoHo2z-yK8uKQ-re_OmP-32" value="Encrypt with key K" style="rounded=1;whiteSpace=wrap;html=1;fillColor=#dae8fc;strokeColor=#6c8ebf;" vertex="1" parent="1">
          <mxGeometry x="680" y="280" width="120" height="60" as="geometry" />
        </mxCell>
        <mxCell id="HoHo2z-yK8uKQ-re_OmP-43" style="edgeStyle=orthogonalEdgeStyle;rounded=0;orthogonalLoop=1;jettySize=auto;html=1;exitX=0.5;exitY=1;exitDx=0;exitDy=0;entryX=0.5;entryY=0;entryDx=0;entryDy=0;" edge="1" parent="1" source="HoHo2z-yK8uKQ-re_OmP-34" target="HoHo2z-yK8uKQ-re_OmP-42">
          <mxGeometry relative="1" as="geometry" />
        </mxCell>
        <mxCell id="HoHo2z-yK8uKQ-re_OmP-34" value="Block key 1" style="rounded=0;whiteSpace=wrap;html=1;fillColor=none;" vertex="1" parent="1">
          <mxGeometry x="200" y="380" width="120" height="40" as="geometry" />
        </mxCell>
        <mxCell id="HoHo2z-yK8uKQ-re_OmP-62" style="edgeStyle=orthogonalEdgeStyle;rounded=0;orthogonalLoop=1;jettySize=auto;html=1;exitX=0.5;exitY=1;exitDx=0;exitDy=0;entryX=0.5;entryY=0;entryDx=0;entryDy=0;" edge="1" parent="1" source="HoHo2z-yK8uKQ-re_OmP-35" target="HoHo2z-yK8uKQ-re_OmP-59">
          <mxGeometry relative="1" as="geometry" />
        </mxCell>
        <mxCell id="HoHo2z-yK8uKQ-re_OmP-35" value="Block key 2" style="rounded=0;whiteSpace=wrap;html=1;fillColor=none;" vertex="1" parent="1">
          <mxGeometry x="440" y="380" width="120" height="40" as="geometry" />
        </mxCell>
        <mxCell id="HoHo2z-yK8uKQ-re_OmP-65" style="edgeStyle=orthogonalEdgeStyle;rounded=0;orthogonalLoop=1;jettySize=auto;html=1;exitX=0.5;exitY=1;exitDx=0;exitDy=0;entryX=0.5;entryY=0;entryDx=0;entryDy=0;" edge="1" parent="1" source="HoHo2z-yK8uKQ-re_OmP-36" target="HoHo2z-yK8uKQ-re_OmP-60">
          <mxGeometry relative="1" as="geometry" />
        </mxCell>
        <mxCell id="HoHo2z-yK8uKQ-re_OmP-36" value="Block key 3" style="rounded=0;whiteSpace=wrap;html=1;fillColor=none;" vertex="1" parent="1">
          <mxGeometry x="680" y="380" width="120" height="40" as="geometry" />
        </mxCell>
        <mxCell id="HoHo2z-yK8uKQ-re_OmP-40" value="+1" style="text;html=1;align=center;verticalAlign=middle;resizable=0;points=[];autosize=1;strokeColor=none;fillColor=none;" vertex="1" parent="1">
          <mxGeometry x="600" y="190" width="40" height="30" as="geometry" />
        </mxCell>
        <mxCell id="HoHo2z-yK8uKQ-re_OmP-44" style="edgeStyle=orthogonalEdgeStyle;rounded=0;orthogonalLoop=1;jettySize=auto;html=1;exitX=1;exitY=0.5;exitDx=0;exitDy=0;entryX=0;entryY=0.5;entryDx=0;entryDy=0;" edge="1" parent="1" source="HoHo2z-yK8uKQ-re_OmP-41" target="HoHo2z-yK8uKQ-re_OmP-42">
          <mxGeometry relative="1" as="geometry" />
        </mxCell>
        <mxCell id="HoHo2z-yK8uKQ-re_OmP-41" value="Plaintext block 1" style="rounded=0;whiteSpace=wrap;html=1;fillColor=#d5e8d4;strokeColor=#82b366;" vertex="1" parent="1">
          <mxGeometry x="80" y="460" width="120" height="40" as="geometry" />
        </mxCell>
        <mxCell id="HoHo2z-yK8uKQ-re_OmP-56" style="edgeStyle=orthogonalEdgeStyle;rounded=0;orthogonalLoop=1;jettySize=auto;html=1;exitX=0.5;exitY=1;exitDx=0;exitDy=0;entryX=0.5;entryY=0;entryDx=0;entryDy=0;" edge="1" parent="1" source="HoHo2z-yK8uKQ-re_OmP-42" target="HoHo2z-yK8uKQ-re_OmP-53">
          <mxGeometry relative="1" as="geometry" />
        </mxCell>
        <mxCell id="HoHo2z-yK8uKQ-re_OmP-42" value="" style="shape=orEllipse;perimeter=ellipsePerimeter;whiteSpace=wrap;html=1;backgroundOutline=1;fillColor=none;" vertex="1" parent="1">
          <mxGeometry x="240" y="460" width="40" height="40" as="geometry" />
        </mxCell>
        <mxCell id="HoHo2z-yK8uKQ-re_OmP-61" style="edgeStyle=orthogonalEdgeStyle;rounded=0;orthogonalLoop=1;jettySize=auto;html=1;exitX=1;exitY=0.5;exitDx=0;exitDy=0;entryX=0;entryY=0.5;entryDx=0;entryDy=0;" edge="1" parent="1" source="HoHo2z-yK8uKQ-re_OmP-46" target="HoHo2z-yK8uKQ-re_OmP-59">
          <mxGeometry relative="1" as="geometry" />
        </mxCell>
        <mxCell id="HoHo2z-yK8uKQ-re_OmP-46" value="Plaintext block 2" style="rounded=0;whiteSpace=wrap;html=1;fillColor=#d5e8d4;strokeColor=#82b366;" vertex="1" parent="1">
          <mxGeometry x="320" y="460" width="120" height="40" as="geometry" />
        </mxCell>
        <mxCell id="HoHo2z-yK8uKQ-re_OmP-64" style="edgeStyle=orthogonalEdgeStyle;rounded=0;orthogonalLoop=1;jettySize=auto;html=1;exitX=1;exitY=0.5;exitDx=0;exitDy=0;entryX=0;entryY=0.5;entryDx=0;entryDy=0;" edge="1" parent="1" source="HoHo2z-yK8uKQ-re_OmP-49" target="HoHo2z-yK8uKQ-re_OmP-60">
          <mxGeometry relative="1" as="geometry" />
        </mxCell>
        <mxCell id="HoHo2z-yK8uKQ-re_OmP-49" value="Plaintext block 3" style="rounded=0;whiteSpace=wrap;html=1;fillColor=#d5e8d4;strokeColor=#82b366;" vertex="1" parent="1">
          <mxGeometry x="560" y="460" width="120" height="40" as="geometry" />
        </mxCell>
        <mxCell id="HoHo2z-yK8uKQ-re_OmP-53" value="Ciphertext block 1" style="rounded=0;whiteSpace=wrap;html=1;fillColor=#ffe6cc;strokeColor=#d79b00;" vertex="1" parent="1">
          <mxGeometry x="200" y="540" width="120" height="40" as="geometry" />
        </mxCell>
        <mxCell id="HoHo2z-yK8uKQ-re_OmP-54" value="Ciphertext block 2" style="rounded=0;whiteSpace=wrap;html=1;fillColor=#ffe6cc;strokeColor=#d79b00;" vertex="1" parent="1">
          <mxGeometry x="440" y="540" width="120" height="40" as="geometry" />
        </mxCell>
        <mxCell id="HoHo2z-yK8uKQ-re_OmP-55" value="Ciphertext block 3" style="rounded=0;whiteSpace=wrap;html=1;fillColor=#ffe6cc;strokeColor=#d79b00;" vertex="1" parent="1">
          <mxGeometry x="680" y="540" width="120" height="40" as="geometry" />
        </mxCell>
        <mxCell id="HoHo2z-yK8uKQ-re_OmP-63" style="edgeStyle=orthogonalEdgeStyle;rounded=0;orthogonalLoop=1;jettySize=auto;html=1;exitX=0.5;exitY=1;exitDx=0;exitDy=0;entryX=0.5;entryY=0;entryDx=0;entryDy=0;" edge="1" parent="1" source="HoHo2z-yK8uKQ-re_OmP-59" target="HoHo2z-yK8uKQ-re_OmP-54">
          <mxGeometry relative="1" as="geometry" />
        </mxCell>
        <mxCell id="HoHo2z-yK8uKQ-re_OmP-59" value="" style="shape=orEllipse;perimeter=ellipsePerimeter;whiteSpace=wrap;html=1;backgroundOutline=1;fillColor=none;" vertex="1" parent="1">
          <mxGeometry x="480" y="460" width="40" height="40" as="geometry" />
        </mxCell>
        <mxCell id="HoHo2z-yK8uKQ-re_OmP-66" style="edgeStyle=orthogonalEdgeStyle;rounded=0;orthogonalLoop=1;jettySize=auto;html=1;exitX=0.5;exitY=1;exitDx=0;exitDy=0;entryX=0.5;entryY=0;entryDx=0;entryDy=0;" edge="1" parent="1" source="HoHo2z-yK8uKQ-re_OmP-60" target="HoHo2z-yK8uKQ-re_OmP-55">
          <mxGeometry relative="1" as="geometry" />
        </mxCell>
        <mxCell id="HoHo2z-yK8uKQ-re_OmP-60" value="" style="shape=orEllipse;perimeter=ellipsePerimeter;whiteSpace=wrap;html=1;backgroundOutline=1;fillColor=none;" vertex="1" parent="1">
          <mxGeometry x="720" y="460" width="40" height="40" as="geometry" />
        </mxCell>
      </root>
    </mxGraphModel>
  </diagram>
</mxfile>
